<svg width="117" height="44" viewBox="0 0 117 44" fill="none" xmlns="http://www.w3.org/2000/svg">
<path d="M10.4439 31.0826C10.233 30.5762 9.95339 29.9327 9.60526 29.152C9.25713 28.3714 8.88263 27.5274 8.48175 26.6202C8.08087 25.7129 7.65362 24.7793 7.19999 23.8193C6.74636 22.8593 6.31911 21.9521 5.91823 21.0975C5.51735 20.243 5.14285 19.4782 4.79472 18.803C4.44659 18.1279 4.16703 17.611 3.95604 17.2523C3.72395 19.742 3.53406 22.4373 3.38637 25.3384C3.23868 28.2395 3.11208 31.167 3.00659 34.1208H0C0.0843959 32.2219 0.17934 30.3072 0.284835 28.3767C0.39033 26.4461 0.511647 24.5472 0.64879 22.68C0.785934 20.8127 0.933624 18.9929 1.09187 17.2206C1.25011 15.4483 1.42417 13.771 1.61406 12.1885H4.30417C4.87384 13.1169 5.4857 14.214 6.13977 15.48C6.79384 16.7459 7.4479 18.0698 8.10197 19.4518C8.75604 20.8338 9.38899 22.2158 10.0009 23.5978C10.6127 24.9797 11.1719 26.2404 11.6782 27.3797C12.1846 26.2404 12.7437 24.9797 13.3556 23.5978C13.9675 22.2158 14.6004 20.8338 15.2545 19.4518C15.9086 18.0698 16.5626 16.7459 17.2167 15.48C17.8707 14.214 18.4826 13.1169 19.0523 12.1885H21.7424C22.4598 19.2567 22.9978 26.5674 23.3565 34.1208H20.3499C20.2444 31.167 20.1178 28.2395 19.9701 25.3384C19.8224 22.4373 19.6325 19.742 19.4004 17.2523C19.1894 17.611 18.9099 18.1279 18.5617 18.803C18.2136 19.4782 17.8391 20.243 17.4382 21.0975C17.0373 21.9521 16.6101 22.8593 16.1565 23.8193C15.7028 24.7793 15.2756 25.7129 14.8747 26.6202C14.4738 27.5274 14.0993 28.3714 13.7512 29.152C13.4031 29.9327 13.1235 30.5762 12.9125 31.0826H10.4439Z" fill="#232020"/>
<path d="M29.4471 32.0005C30.1434 32.0005 30.7605 31.9847 31.2986 31.953C31.8366 31.9214 32.2849 31.8634 32.6436 31.779V26.8735C32.4326 26.768 32.0898 26.6783 31.6151 26.6045C31.1403 26.5306 30.5654 26.4937 29.8902 26.4937C29.4471 26.4937 28.9777 26.5253 28.4819 26.5886C27.986 26.6519 27.5324 26.7838 27.121 26.9842C26.7096 27.1847 26.3667 27.459 26.0924 27.8071C25.8181 28.1552 25.681 28.6141 25.681 29.1838C25.681 30.2387 26.0186 30.9719 26.6937 31.3834C27.3689 31.7948 28.2867 32.0005 29.4471 32.0005ZM29.194 17.2524C30.3755 17.2524 31.3724 17.4053 32.1847 17.7113C32.997 18.0172 33.6511 18.4497 34.1469 19.0089C34.6427 19.568 34.9961 20.2326 35.2071 21.0027C35.4181 21.7728 35.5236 22.622 35.5236 23.5504V33.8361C35.2704 33.8783 34.917 33.9363 34.4634 34.0102C34.0098 34.084 33.4981 34.1526 32.9285 34.2159C32.3588 34.2792 31.7417 34.3372 31.077 34.3899C30.4124 34.4427 29.7531 34.4691 29.099 34.4691C28.1707 34.4691 27.3162 34.3741 26.5355 34.1842C25.7548 33.9943 25.0797 33.6937 24.51 33.2823C23.9403 32.8708 23.4973 32.3275 23.1808 31.6524C22.8643 30.9772 22.7061 30.1649 22.7061 29.2154C22.7061 28.3082 22.8907 27.5275 23.2599 26.8735C23.6291 26.2194 24.1302 25.6919 24.7632 25.2911C25.3962 24.8902 26.1346 24.5948 26.9786 24.4049C27.8225 24.215 28.7087 24.1201 29.637 24.1201C29.9324 24.1201 30.2384 24.1359 30.5548 24.1675C30.8713 24.1992 31.172 24.2414 31.4568 24.2941C31.7417 24.3469 31.9896 24.3944 32.2006 24.4365C32.4115 24.4787 32.5592 24.5104 32.6436 24.5315V23.7086C32.6436 23.2234 32.5909 22.7434 32.4854 22.2686C32.3799 21.7939 32.19 21.3719 31.9157 21.0027C31.6414 20.6335 31.2669 20.3381 30.7922 20.1166C30.3175 19.895 29.7003 19.7842 28.9408 19.7842C27.9702 19.7842 27.121 19.8528 26.3931 19.99C25.6652 20.1271 25.1219 20.2695 24.7632 20.4172L24.4151 17.9803C24.7948 17.8115 25.4278 17.648 26.314 17.4897C27.2001 17.3315 28.1601 17.2524 29.194 17.2524Z" fill="#232020"/>
<path d="M46.5262 32.4753C46.273 32.6441 45.7824 32.8603 45.0545 33.1241C44.3266 33.3878 43.4774 33.5197 42.5068 33.5197C41.5152 33.5197 40.5816 33.3614 39.706 33.045C38.8303 32.7285 38.0655 32.2379 37.4115 31.5733C36.7574 30.9087 36.2405 30.0806 35.8607 29.0889C35.4809 28.0973 35.291 26.9157 35.291 25.5443C35.291 24.3417 35.4704 23.2393 35.829 22.2371C36.1877 21.2349 36.7099 20.3698 37.3956 19.6419C38.0813 18.914 38.92 18.3443 39.9117 17.9329C40.9033 17.5215 42.0215 17.3158 43.2664 17.3158C44.6378 17.3158 45.8352 17.416 46.8585 17.6164C47.8818 17.8169 48.7415 18.0015 49.4378 18.1703V32.8551C49.4378 35.3869 48.7837 37.2225 47.4756 38.3619C46.1675 39.5012 44.1842 40.0709 41.5257 40.0709C40.4919 40.0709 39.5161 39.9865 38.5983 39.8177C37.6805 39.6489 36.884 39.4485 36.2088 39.2164L36.7468 36.6529C37.3376 36.885 38.0602 37.0907 38.9147 37.27C39.7693 37.4494 40.6607 37.539 41.589 37.539C43.3402 37.539 44.6009 37.1909 45.371 36.4946C46.1411 35.7984 46.5262 34.6907 46.5262 33.1716V32.4753ZM46.4945 20.259C46.1991 20.1747 45.8035 20.0955 45.3077 20.0217C44.8119 19.9478 44.142 19.9109 43.298 19.9109C41.7156 19.9109 40.4972 20.4278 39.6427 21.4617C38.7882 22.4955 38.3609 23.8669 38.3609 25.576C38.3609 26.5254 38.4822 27.3377 38.7249 28.0129C38.9675 28.6881 39.2945 29.2472 39.706 29.6902C40.1174 30.1333 40.5921 30.4604 41.1301 30.6713C41.6682 30.8823 42.222 30.9878 42.7917 30.9878C43.5723 30.9878 44.2897 30.8771 44.9437 30.6555C45.5978 30.434 46.1147 30.1755 46.4945 29.8801V20.259Z" fill="#232020"/>
<path d="M50.46 18.1386C51.1351 17.9698 52.0318 17.7905 53.1501 17.6006C54.2683 17.4107 55.5553 17.3158 57.0112 17.3158C58.3193 17.3158 59.4059 17.5004 60.2709 17.8696C61.136 18.2388 61.827 18.7558 62.3439 19.4204C62.8608 20.085 63.2248 20.8815 63.4358 21.8098C63.6468 22.7382 63.7522 23.7615 63.7522 24.8797V34.121H60.809V25.5127C60.809 24.4999 60.7404 23.6349 60.6032 22.9175C60.4661 22.2001 60.2393 21.6199 59.9228 21.1769C59.6063 20.7338 59.1843 20.412 58.6569 20.2116C58.1294 20.0111 57.4753 19.9109 56.6947 19.9109C56.3782 19.9109 56.0512 19.9215 55.7136 19.9426C55.376 19.9637 55.0542 19.99 54.7483 20.0217C54.4424 20.0533 54.1681 20.0903 53.9254 20.1325C53.6828 20.1747 53.5087 20.2063 53.4033 20.2274V34.121H50.46V18.1386Z" fill="#232020"/>
<path d="M63.6035 25.924C63.6035 24.4682 63.8145 23.197 64.2365 22.1104C64.6585 21.0238 65.2176 20.1219 65.9138 19.4045C66.6101 18.6871 67.4119 18.1491 68.3191 17.7904C69.2264 17.4317 70.1547 17.2524 71.1042 17.2524C73.3196 17.2524 75.018 17.9434 76.1995 19.3254C77.3811 20.7074 77.9718 22.812 77.9718 25.6392V26.1298C77.9718 26.3302 77.9613 26.5148 77.9402 26.6836H66.6734C66.8 28.3926 67.2958 29.6902 68.1609 30.5763C69.0259 31.4625 70.3762 31.9056 72.2119 31.9056C73.2457 31.9056 74.116 31.8159 74.8228 31.6366C75.5297 31.4572 76.0624 31.2832 76.4211 31.1144L76.8325 33.5829C76.4738 33.7728 75.8461 33.9733 74.9494 34.1843C74.0527 34.3952 73.0347 34.5007 71.8954 34.5007C70.4606 34.5007 69.2211 34.2845 68.1767 33.852C67.1323 33.4194 66.2725 32.8234 65.5974 32.0638C64.9222 31.3043 64.4211 30.4023 64.0941 29.3579C63.767 28.3135 63.6035 27.1689 63.6035 25.924ZM74.902 24.31C74.9231 22.9807 74.5908 21.8889 73.905 21.0344C73.2193 20.1799 72.2752 19.7526 71.0725 19.7526C70.3973 19.7526 69.8013 19.8845 69.2844 20.1482C68.7675 20.412 68.3297 20.7548 67.971 21.1768C67.6123 21.5988 67.3327 22.0841 67.1323 22.6326C66.9319 23.1812 66.8 23.7403 66.7367 24.31H74.902Z" fill="#232020"/>
<path d="M80.9179 17.6637H87.1526V20.1322H80.9179V27.7278C80.9179 28.5507 80.9812 29.2311 81.1078 29.7691C81.2344 30.3072 81.4243 30.7291 81.6775 31.0351C81.9307 31.341 82.2471 31.5573 82.6269 31.6839C83.0067 31.8105 83.4498 31.8738 83.9561 31.8738C84.8423 31.8738 85.5544 31.7735 86.0924 31.5731C86.6304 31.3727 87.0049 31.2302 87.2159 31.1458L87.7856 33.5828C87.4902 33.7305 86.9733 33.9151 86.2348 34.1366C85.4964 34.3582 84.6524 34.4689 83.703 34.4689C82.5847 34.4689 81.6616 34.3265 80.9337 34.0417C80.2058 33.7568 79.6203 33.3296 79.1773 32.7599C78.7342 32.1902 78.423 31.4887 78.2436 30.6553C78.0643 29.8219 77.9746 28.8566 77.9746 27.7595V13.0747L80.9179 12.5683V17.6637Z" fill="#232020"/>
<path d="M100.87 25.8924C100.87 27.2005 100.68 28.382 100.3 29.437C99.9207 30.4919 99.388 31.3992 98.7023 32.1587C98.0165 32.9183 97.199 33.5038 96.2495 33.9152C95.3 34.3266 94.2662 34.5324 93.148 34.5324C92.0297 34.5324 90.9959 34.3266 90.0464 33.9152C89.097 33.5038 88.2794 32.9183 87.5937 32.1587C86.908 31.3992 86.3752 30.4919 85.9955 29.437C85.6157 28.382 85.4258 27.2005 85.4258 25.8924C85.4258 24.6053 85.6157 23.4291 85.9955 22.3636C86.3752 21.2981 86.908 20.3856 87.5937 19.626C88.2794 18.8664 89.097 18.281 90.0464 17.8695C90.9959 17.4581 92.0297 17.2524 93.148 17.2524C94.2662 17.2524 95.3 17.4581 96.2495 17.8695C97.199 18.281 98.0165 18.8664 98.7023 19.626C99.388 20.3856 99.9207 21.2981 100.3 22.3636C100.68 23.4291 100.87 24.6053 100.87 25.8924ZM97.8003 25.8924C97.8003 24.0357 97.3836 22.564 96.5502 21.4774C95.7168 20.3908 94.5827 19.8475 93.148 19.8475C91.7132 19.8475 90.5792 20.3908 89.7458 21.4774C88.9124 22.564 88.4957 24.0357 88.4957 25.8924C88.4957 27.7491 88.9124 29.2207 89.7458 30.3073C90.5792 31.3939 91.7132 31.9372 93.148 31.9372C94.5827 31.9372 95.7168 31.3939 96.5502 30.3073C97.3836 29.2207 97.8003 27.7491 97.8003 25.8924Z" fill="#232020"/>
<path fill-rule="evenodd" clip-rule="evenodd" d="M95.2488 15.2125L98.8522 2.73342L95.4021 0.272728C94.4732 -0.0986175 93.9622 0.134104 93.8691 0.970893C93.7293 2.22608 92.3523 11.8497 92.0146 14.2571C93.2081 14.4483 94.2861 14.7668 95.2488 15.2125Z" fill="#232020"/>
<path fill-rule="evenodd" clip-rule="evenodd" d="M98.8528 2.83636L99.5541 2.60434L95.7723 0.123291C95.1148 -0.0659451 94.6335 -0.0373412 94.3281 0.209103C94.9147 0.189903 95.3263 0.257269 95.5629 0.411201C95.7995 0.565133 96.8961 1.37352 98.8528 2.83636Z" fill="#232020"/>
<path fill-rule="evenodd" clip-rule="evenodd" d="M95.1847 15.2126C95.1794 15.2087 95.3344 15.2925 95.6497 15.4638L99.4894 2.58263L98.7881 2.73349L95.1847 15.2126Z" fill="#232020"/>
<path fill-rule="evenodd" clip-rule="evenodd" d="M99.8998 18.2701L104.728 9.76848L100.8 7.22153C99.9569 7.00085 99.4498 7.17042 99.2785 7.73024C99.0216 8.56997 97.3077 13.7833 96.5977 15.8498C97.874 16.4847 98.9747 17.2915 99.8998 18.2701Z" fill="#232020"/>
<path fill-rule="evenodd" clip-rule="evenodd" d="M104.728 9.79712L105.077 9.61263L101.12 7.00546C100.292 6.79752 99.7551 6.89457 99.5098 7.2966C100.12 7.10114 100.584 7.10007 100.902 7.29339C101.221 7.48672 102.496 8.32129 104.728 9.79712Z" fill="#232020"/>
<path fill-rule="evenodd" clip-rule="evenodd" d="M99.876 18.2702L104.704 9.76861L105.053 9.58412L100.034 18.5197L99.876 18.2702Z" fill="#232020"/>
<path fill-rule="evenodd" clip-rule="evenodd" d="M104.079 24.8396L115.813 13.6225L109.3 9.32803C108.279 9.04107 107.578 9.20768 107.197 9.82783C106.625 10.7581 102.498 17.3701 101.118 19.4665C102.493 21.0941 103.48 22.8851 104.079 24.8396Z" fill="#232020"/>
<path fill-rule="evenodd" clip-rule="evenodd" d="M115.814 13.6224L116.038 13.0954L109.713 9.06395C109.005 8.87093 108.416 8.93565 107.946 9.2581C108.652 9.16987 109.149 9.22481 109.434 9.42292C109.72 9.62103 111.847 11.0209 115.814 13.6224Z" fill="#232020"/>
<path d="M50.4521 38.822H51.3737V43.8903H50.4521V38.822Z" fill="#232020"/>
<path d="M56.4126 38.822V39.6192H54.8548V43.8903H53.926V39.6192H52.3682V38.822H56.4126Z" fill="#232020"/>
<path d="M60.6362 43.2028C60.9677 43.2028 61.2091 43.1468 61.3602 43.0346C61.5114 42.9225 61.587 42.764 61.587 42.5592C61.587 42.4373 61.5601 42.3325 61.5065 42.2447C61.4578 42.157 61.3846 42.079 61.2871 42.0107C61.1945 41.9376 61.0799 41.8718 60.9434 41.8132C60.8068 41.7499 60.6508 41.6889 60.4753 41.6304C60.2998 41.567 60.1291 41.4988 59.9634 41.4256C59.8025 41.3476 59.6586 41.2525 59.5319 41.1404C59.41 41.0283 59.31 40.8942 59.232 40.7382C59.1589 40.5821 59.1223 40.3944 59.1223 40.175C59.1223 39.7167 59.2808 39.3583 59.5977 39.0999C59.9146 38.8366 60.3461 38.705 60.8922 38.705C61.2091 38.705 61.4894 38.7416 61.7332 38.8147C61.9819 38.883 62.1769 38.9585 62.3183 39.0414L62.0331 39.7874C61.8673 39.6948 61.6845 39.6241 61.4846 39.5753C61.2895 39.5265 61.0872 39.5022 60.8775 39.5022C60.6289 39.5022 60.4339 39.5534 60.2925 39.6558C60.1559 39.7581 60.0877 39.902 60.0877 40.0873C60.0877 40.1994 60.1096 40.2969 60.1535 40.3798C60.2023 40.4578 60.2681 40.5285 60.351 40.5919C60.4387 40.6553 60.5387 40.7138 60.6508 40.7674C60.7678 40.821 60.8946 40.8722 61.0311 40.921C61.27 41.0088 61.4821 41.099 61.6674 41.1916C61.8576 41.2794 62.016 41.3866 62.1428 41.5134C62.2744 41.6353 62.3744 41.7816 62.4426 41.9522C62.5109 42.118 62.545 42.3203 62.545 42.5592C62.545 43.0175 62.3817 43.3735 62.055 43.627C61.7332 43.8757 61.2603 44 60.6362 44C60.4265 44 60.234 43.9854 60.0584 43.9561C59.8878 43.9317 59.7342 43.9 59.5977 43.861C59.466 43.822 59.3515 43.783 59.2539 43.744C59.1564 43.7001 59.0784 43.6611 59.0199 43.627L59.2905 42.8737C59.4221 42.9468 59.6001 43.02 59.8244 43.0931C60.0487 43.1663 60.3193 43.2028 60.6362 43.2028Z" fill="#232020"/>
<path d="M64.403 41.3525C64.403 41.6304 64.4371 41.8839 64.5053 42.1131C64.5736 42.3374 64.6711 42.53 64.7979 42.6909C64.9295 42.8469 65.088 42.9688 65.2733 43.0566C65.4585 43.1443 65.6682 43.1882 65.9022 43.1882C66.1314 43.1882 66.3386 43.1443 66.5239 43.0566C66.7092 42.9688 66.8652 42.8469 66.992 42.6909C67.1236 42.53 67.2235 42.3374 67.2918 42.1131C67.3601 41.8839 67.3942 41.6304 67.3942 41.3525C67.3942 41.0746 67.3601 40.8235 67.2918 40.5992C67.2235 40.37 67.1236 40.1775 66.992 40.0214C66.8652 39.8605 66.7092 39.7362 66.5239 39.6484C66.3386 39.5607 66.1314 39.5168 65.9022 39.5168C65.6682 39.5168 65.4585 39.5607 65.2733 39.6484C65.088 39.7362 64.9295 39.8605 64.7979 40.0214C64.6711 40.1823 64.5736 40.3749 64.5053 40.5992C64.4371 40.8235 64.403 41.0746 64.403 41.3525ZM68.3596 41.3525C68.3596 41.7864 68.2938 42.1692 68.1621 42.5007C68.0353 42.8323 67.8598 43.1102 67.6355 43.3345C67.4161 43.5539 67.1577 43.7196 66.8603 43.8318C66.5629 43.9439 66.246 44 65.9095 44C65.5731 44 65.2538 43.9439 64.9515 43.8318C64.6541 43.7196 64.3932 43.5539 64.1689 43.3345C63.9495 43.1102 63.774 42.8323 63.6423 42.5007C63.5107 42.1692 63.4449 41.7864 63.4449 41.3525C63.4449 40.9186 63.5107 40.5383 63.6423 40.2116C63.774 39.88 63.952 39.6021 64.1762 39.3778C64.4054 39.1536 64.6687 38.9853 64.9661 38.8732C65.2635 38.7611 65.578 38.705 65.9095 38.705C66.2411 38.705 66.5556 38.7611 66.853 38.8732C67.1504 38.9853 67.4088 39.1536 67.6282 39.3778C67.8525 39.6021 68.0305 39.88 68.1621 40.2116C68.2938 40.5383 68.3596 40.9186 68.3596 41.3525Z" fill="#232020"/>
<path d="M72.8664 43.0931V43.8903H69.663V38.822H70.5846V43.0931H72.8664Z" fill="#232020"/>
<path d="M75.7008 44C75.3546 44 75.0572 43.9512 74.8085 43.8537C74.5599 43.7513 74.3526 43.6099 74.1869 43.4295C74.026 43.2491 73.9065 43.037 73.8285 42.7933C73.7505 42.5495 73.7115 42.2813 73.7115 41.9888V38.822H74.6403V41.901C74.6403 42.1302 74.6647 42.3276 74.7134 42.4934C74.7671 42.6543 74.8402 42.7859 74.9329 42.8883C75.0304 42.9907 75.1425 43.0663 75.2693 43.1151C75.4009 43.1638 75.5472 43.1882 75.7081 43.1882C75.869 43.1882 76.0153 43.1638 76.1469 43.1151C76.2785 43.0663 76.3907 42.9907 76.4833 42.8883C76.5808 42.7859 76.654 42.6543 76.7027 42.4934C76.7564 42.3276 76.7832 42.1302 76.7832 41.901V38.822H77.712V41.9888C77.712 42.2813 77.6706 42.5495 77.5877 42.7933C77.5097 43.037 77.3878 43.2491 77.222 43.4295C77.0611 43.6099 76.8539 43.7513 76.6003 43.8537C76.3468 43.9512 76.047 44 75.7008 44Z" fill="#232020"/>
<path d="M82.7154 38.822V39.6192H81.1576V43.8903H80.2288V39.6192H78.671V38.822H82.7154Z" fill="#232020"/>
<path d="M83.7108 38.822H84.6323V43.8903H83.7108V38.822Z" fill="#232020"/>
<path d="M86.8921 41.3525C86.8921 41.6304 86.9262 41.8839 86.9945 42.1131C87.0627 42.3374 87.1603 42.53 87.287 42.6909C87.4187 42.8469 87.5771 42.9688 87.7624 43.0566C87.9477 43.1443 88.1573 43.1882 88.3914 43.1882C88.6205 43.1882 88.8277 43.1443 89.013 43.0566C89.1983 42.9688 89.3543 42.8469 89.4811 42.6909C89.6127 42.53 89.7127 42.3374 89.7809 42.1131C89.8492 41.8839 89.8833 41.6304 89.8833 41.3525C89.8833 41.0746 89.8492 40.8235 89.7809 40.5992C89.7127 40.37 89.6127 40.1775 89.4811 40.0214C89.3543 39.8605 89.1983 39.7362 89.013 39.6484C88.8277 39.5607 88.6205 39.5168 88.3914 39.5168C88.1573 39.5168 87.9477 39.5607 87.7624 39.6484C87.5771 39.7362 87.4187 39.8605 87.287 40.0214C87.1603 40.1823 87.0627 40.3749 86.9945 40.5992C86.9262 40.8235 86.8921 41.0746 86.8921 41.3525ZM90.8487 41.3525C90.8487 41.7864 90.7829 42.1692 90.6513 42.5007C90.5245 42.8323 90.349 43.1102 90.1247 43.3345C89.9053 43.5539 89.6469 43.7196 89.3494 43.8318C89.052 43.9439 88.7351 44 88.3987 44C88.0623 44 87.7429 43.9439 87.4406 43.8318C87.1432 43.7196 86.8823 43.5539 86.6581 43.3345C86.4387 43.1102 86.2631 42.8323 86.1315 42.5007C85.9998 42.1692 85.934 41.7864 85.934 41.3525C85.934 40.9186 85.9998 40.5383 86.1315 40.2116C86.2631 39.88 86.4411 39.6021 86.6654 39.3778C86.8945 39.1536 87.1578 38.9853 87.4552 38.8732C87.7527 38.7611 88.0671 38.705 88.3987 38.705C88.7302 38.705 89.0447 38.7611 89.3421 38.8732C89.6395 38.9853 89.898 39.1536 90.1174 39.3778C90.3416 39.6021 90.5196 39.88 90.6513 40.2116C90.7829 40.5383 90.8487 40.9186 90.8487 41.3525Z" fill="#232020"/>
<path d="M95.5676 43.8903C95.4018 43.6124 95.2166 43.315 95.0118 42.998C94.807 42.6762 94.5949 42.3545 94.3755 42.0327C94.1561 41.706 93.9318 41.3915 93.7027 41.0892C93.4784 40.782 93.2638 40.5066 93.0591 40.2628V43.8903H92.1522V38.822H92.9055C93.1005 39.0268 93.3102 39.2706 93.5344 39.5534C93.7587 39.8313 93.983 40.1214 94.2073 40.4237C94.4364 40.726 94.6559 41.0307 94.8655 41.3379C95.08 41.6402 95.2702 41.923 95.436 42.1862V38.822H96.3502V43.8903H95.5676Z" fill="#232020"/>
<path d="M99.0871 43.2028C99.4187 43.2028 99.66 43.1468 99.8112 43.0346C99.9623 42.9225 100.038 42.764 100.038 42.5592C100.038 42.4373 100.011 42.3325 99.9574 42.2447C99.9087 42.157 99.8356 42.079 99.738 42.0107C99.6454 41.9376 99.5308 41.8718 99.3943 41.8132C99.2578 41.7499 99.1018 41.6889 98.9262 41.6304C98.7507 41.567 98.5801 41.4988 98.4143 41.4256C98.2534 41.3476 98.1096 41.2525 97.9828 41.1404C97.8609 41.0283 97.7609 40.8942 97.6829 40.7382C97.6098 40.5821 97.5732 40.3944 97.5732 40.175C97.5732 39.7167 97.7317 39.3583 98.0486 39.0999C98.3655 38.8366 98.797 38.705 99.3431 38.705C99.66 38.705 99.9404 38.7416 100.184 38.8147C100.433 38.883 100.628 38.9585 100.769 39.0414L100.484 39.7874C100.318 39.6948 100.135 39.6241 99.9355 39.5753C99.7405 39.5265 99.5381 39.5022 99.3285 39.5022C99.0798 39.5022 98.8848 39.5534 98.7434 39.6558C98.6069 39.7581 98.5386 39.902 98.5386 40.0873C98.5386 40.1994 98.5606 40.2969 98.6044 40.3798C98.6532 40.4578 98.719 40.5285 98.8019 40.5919C98.8897 40.6553 98.9896 40.7138 99.1018 40.7674C99.2188 40.821 99.3455 40.8722 99.4821 40.921C99.721 41.0088 99.9331 41.099 100.118 41.1916C100.309 41.2794 100.467 41.3866 100.594 41.5134C100.725 41.6353 100.825 41.7816 100.894 41.9522C100.962 42.118 100.996 42.3203 100.996 42.5592C100.996 43.0175 100.833 43.3735 100.506 43.627C100.184 43.8757 99.7112 44 99.0871 44C98.8775 44 98.6849 43.9854 98.5094 43.9561C98.3387 43.9317 98.1851 43.9 98.0486 43.861C97.917 43.822 97.8024 43.783 97.7049 43.744C97.6074 43.7001 97.5294 43.6611 97.4708 43.627L97.7414 42.8737C97.8731 42.9468 98.0511 43.02 98.2753 43.0931C98.4996 43.1663 98.7702 43.2028 99.0871 43.2028Z" fill="#232020"/>
</svg>
